<?xml version="1.0" encoding="UTF-8"?>
<svg width="32px" height="52px" viewBox="0 0 32 52" version="1.1" xmlns="http://www.w3.org/2000/svg" xmlns:xlink="http://www.w3.org/1999/xlink">
    <!-- Generator: Sketch 60.1 (88133) - https://sketch.com -->
    <title>Group</title>
    <desc>Created with Sketch.</desc>
    <defs>
        <path d="M2.442,8.74 C7.387,13.684 9.937,16.972 11.35,18.647 L11.35,18.647 C12.256,19.72 15.841,23.888 14.555,26.36 L14.555,26.36 C17.827,21.764 17.418,15.305 13.303,11.191 L13.303,11.191 L2.72,0.608 C2.72,0.608 -2.501,3.797 2.442,8.74" id="path-1"></path>
        <path d="M11.737,8.054 C10.324,9.729 7.813,12.802 2.869,17.747 L2.869,17.747 C-2.075,22.69 3.106,26.093 3.106,26.093 L3.106,26.093 L13.69,15.51 C17.803,11.396 18.213,4.937 14.941,0.341 L14.941,0.341 C16.227,2.813 12.642,6.982 11.737,8.054" id="path-3"></path>
        <path d="M22.717,1.496 C20.146,4.066 0.88,23.357 0.88,23.357 L0.88,23.357 C0.88,23.357 6.197,26.464 9.542,23.119 L9.542,23.119 L29.666,2.972 C29.666,2.972 27.143,0.642 24.804,0.641 L24.804,0.641 C24.061,0.641 23.337,0.876 22.717,1.496" id="path-5"></path>
        <path d="M2.442,8.74 C7.387,13.684 9.937,16.972 11.35,18.647 L11.35,18.647 C12.256,19.72 15.841,23.888 14.555,26.36 L14.555,26.36 C17.827,21.764 17.418,15.305 13.303,11.191 L13.303,11.191 L2.72,0.608 C2.72,0.608 -2.501,3.797 2.442,8.74" id="path-7"></path>
        <path d="M11.737,8.054 C10.324,9.729 7.813,12.802 2.869,17.747 L2.869,17.747 C-2.075,22.69 3.106,26.093 3.106,26.093 L3.106,26.093 L13.69,15.51 C17.803,11.396 18.213,4.937 14.941,0.341 L14.941,0.341 C16.227,2.813 12.642,6.982 11.737,8.054" id="path-9"></path>
    </defs>
    <g id="Page-1" stroke="none" stroke-width="1" fill="none" fill-rule="evenodd">
        <g id="Title-square" transform="translate(-58.000000, -52.000000)">
            <g id="Group" transform="translate(58.000000, 51.000000)">
                <g id="dems-logo-sig" transform="translate(9.000000, 20.500000) scale(-1, -1) translate(-9.000000, -20.500000) ">
                    <g id="Group-40" transform="translate(0.000000, 0.950000)">
                        <g id="Fill-38-Clipped">
                            <g>
                                <mask id="mask-2" fill="white">
                                    <use xlink:href="#path-1"></use>
                                </mask>
                                <g id="path-10"></g>
                                <path d="M2.442,8.74 C7.387,13.684 9.937,16.972 11.35,18.647 L11.35,18.647 C12.256,19.72 15.841,23.888 14.555,26.36 L14.555,26.36 C17.827,21.764 17.418,15.305 13.303,11.191 L13.303,11.191 L2.72,0.608 C2.72,0.608 -2.501,3.797 2.442,8.74" id="Fill-38" fill="#D3D3D3" fill-rule="nonzero" mask="url(#mask-2)"></path>
                            </g>
                        </g>
                    </g>
                    <g id="Group-43" transform="translate(0.000000, 13.950000)">
                        <g id="Fill-41-Clipped">
                            <g>
                                <mask id="mask-4" fill="white">
                                    <use xlink:href="#path-3"></use>
                                </mask>
                                <g id="path-13"></g>
                                <path d="M11.737,8.054 C10.324,9.729 7.813,12.802 2.869,17.747 L2.869,17.747 C-2.075,22.69 3.106,26.093 3.106,26.093 L3.106,26.093 L13.69,15.51 C17.803,11.396 18.213,4.937 14.941,0.341 L14.941,0.341 C16.227,2.813 12.642,6.982 11.737,8.054" id="Fill-41" fill="#FFFFFF" fill-rule="nonzero" mask="url(#mask-4)"></path>
                            </g>
                        </g>
                    </g>
                </g>
                <g id="Fill-35-Clipped" transform="translate(2.000000, 11.950000)">
                    <mask id="mask-6" fill="white">
                        <use xlink:href="#path-5"></use>
                    </mask>
                    <g id="path-7"></g>
                    <path d="M22.717,1.496 C20.146,4.066 0.88,23.357 0.88,23.357 L0.88,23.357 C0.88,23.357 6.197,26.464 9.542,23.119 L9.542,23.119 L29.666,2.972 C29.666,2.972 27.143,0.642 24.804,0.641 L24.804,0.641 C24.061,0.641 23.337,0.876 22.717,1.496" id="Fill-35" fill="#A5A5A5" fill-rule="nonzero" mask="url(#mask-6)"></path>
                </g>
                <g id="dems-logo-sig" transform="translate(12.000000, 13.000000)">
                    <g id="Group-40" transform="translate(0.000000, 0.950000)">
                        <g id="Fill-38-Clipped">
                            <g>
                                <mask id="mask-8" fill="white">
                                    <use xlink:href="#path-7"></use>
                                </mask>
                                <g id="path-10"></g>
                                <path d="M2.442,8.74 C7.387,13.684 9.937,16.972 11.35,18.647 L11.35,18.647 C12.256,19.72 15.841,23.888 14.555,26.36 L14.555,26.36 C17.827,21.764 17.418,15.305 13.303,11.191 L13.303,11.191 L2.72,0.608 C2.72,0.608 -2.501,3.797 2.442,8.74" id="Fill-38" fill="#D3D3D3" fill-rule="nonzero" mask="url(#mask-8)"></path>
                            </g>
                        </g>
                    </g>
                    <g id="Group-43" transform="translate(0.000000, 13.950000)">
                        <g id="Fill-41-Clipped">
                            <g>
                                <mask id="mask-10" fill="white">
                                    <use xlink:href="#path-9"></use>
                                </mask>
                                <g id="path-13"></g>
                                <path d="M11.737,8.054 C10.324,9.729 7.813,12.802 2.869,17.747 L2.869,17.747 C-2.075,22.69 3.106,26.093 3.106,26.093 L3.106,26.093 L13.69,15.51 C17.803,11.396 18.213,4.937 14.941,0.341 L14.941,0.341 C16.227,2.813 12.642,6.982 11.737,8.054" id="Fill-41" fill="#FFFFFF" fill-rule="nonzero" mask="url(#mask-10)"></path>
                            </g>
                        </g>
                    </g>
                </g>
            </g>
        </g>
    </g>
</svg>