<?xml version="1.0" encoding="UTF-8"?>
<svg width="16px" height="16px" viewBox="0 0 16 16" version="1.1" xmlns="http://www.w3.org/2000/svg" xmlns:xlink="http://www.w3.org/1999/xlink">
    <defs>
        <linearGradient x1="50%" y1="100%" x2="50%" y2="0%" id="linearGradient-1">
            <stop stop-color="#F4F7F9" offset="0%"></stop>
            <stop stop-color="#F4F7F9" offset="100%"></stop>
        </linearGradient>
    </defs>
    <g id="Screens---Proxima-Nova" stroke="none" stroke-width="1" fill="none" fill-rule="evenodd">
        <g id="16---Account-Settings" transform="translate(-932.000000, -564.000000)">
            <g id="Credit-Card" transform="translate(380.000000, 525.000000)">
                <rect id="Base" stroke="#FFF" x="0.5" y="37.5" width="569" height="134" rx="4"></rect>
                <g id="Edit-Button" transform="translate(540.000000, 28.000000)">
                    <path d="M13.7525,22.9623 C13.6265,22.8363 13.4215,22.8363 13.2945,22.9623 C13.2025,23.0543 12.0515,26.4933 12.0085,26.6243 C11.9545,26.8573 12.1635,27.0603 12.3975,27.0093 C12.5205,26.9683 15.9645,25.8153 16.0565,25.7243 C16.1825,25.5973 16.1825,25.3923 16.0565,25.2663 L13.7525,22.9623 Z M22.7485,13.8463 C22.5805,13.6763 22.3065,13.6773 22.1385,13.8463 L14.2115,21.7723 C14.0435,21.9413 14.0425,22.2133 14.2115,22.3833 L16.6355,24.8073 C16.8035,24.9753 17.0775,24.9753 17.2455,24.8073 L25.1725,16.8803 C25.3415,16.7113 25.3415,16.4383 25.1725,16.2693 L22.7485,13.8463 Z M26.0735,11.2843 C25.6935,10.9053 25.0795,10.9053 24.6995,11.2843 L23.2685,12.7163 C23.0995,12.8843 23.0995,13.1573 23.2685,13.3273 L25.6915,15.7503 C25.8605,15.9193 26.1335,15.9193 26.3025,15.7503 L27.7335,14.3193 C28.1135,13.9393 28.1135,13.3243 27.7335,12.9443 L26.0735,11.2843 Z" id="Pen-Icon" fill="#FFF"></path>
                </g>
            </g>
        </g>
    </g>
</svg>